<svg width="30" height="30" viewBox="0 0 30 30" fill="none" xmlns="http://www.w3.org/2000/svg">
  <path fill-rule="evenodd" clip-rule="evenodd"
    d="M15 0C6.73055 0 0 6.73055 0 15C0 23.2694 6.73055 30 15 30C23.2694 30 30 23.2694 30 15C30 6.73055 23.2694 0 15 0ZM21.084 12.915L13.8676 20.1313C13.6894 20.3095 13.4476 20.4113 13.1931 20.4113C12.9385 20.4113 12.6967 20.3095 12.5185 20.1313L8.91671 16.5295C8.54762 16.1604 8.54762 15.5495 8.91671 15.1804C9.2858 14.8113 9.89671 14.8113 10.2658 15.1804L13.1931 18.1077L19.7349 11.5659C20.104 11.1968 20.7149 11.1968 21.084 11.5659C21.4531 11.935 21.4531 12.5332 21.084 12.915Z"
  />
</svg>